# xmcd
#
# Track frame offsets: 
#        150
#        17255
#        33995
#        47518
#        64602
#        76300
#        100132
#        114411
#        129780
#        145948
#        168242
#        181747
#
# Disc length: 2607 seconds
#
# Revision: 0
# Processed by: cddbd v1.5.2PL0 Copyright (c) Steve Scherf et al.
# Submitted via: ExactAudioCopy v0.99pb4
#
DISCID=840a2d0c
DTITLE=Cashman - Snake feast
DYEAR=1900
DGENRE=Blues
TTITLE0=Love stands time
TTITLE1=Snake feast
TTITLE2=Come on girl
TTITLE3=Oxford blues
TTITLE4=Bullet
TTITLE5=I want back
TTITLE6=Miss maybelle
TTITLE7=Sweet southern sister
TTITLE8=Motherless child
TTITLE9=Whiskey weed and women
TTITLE10=Pickle juice
TTITLE11=Don't tread on me
EXTD=
EXTT0=
EXTT1=
EXTT2=
EXTT3=
EXTT4=
EXTT5=
EXTT6=
EXTT7=
EXTT8=
EXTT9=
EXTT10=
EXTT11=
PLAYORDER=
